<svg t="1724342289004" class="icon" viewBox="0 0 1024 1024" version="1.1" xmlns="http://www.w3.org/2000/svg" p-id="5574" width="200" height="200"><path d="M512 0.016c282.765582 0 511.992 229.226418 511.992 511.992s-229.226418 511.992-511.992 511.992-511.992-229.226418-511.992-511.992 229.226418-511.992 511.992-511.992z" fill="#5DDDD3" p-id="5575"></path><path d="M288.0015 824.231121h13.051796c76.726801 0.785988 150.745645 15.435759 208.598741 50.491211 57.965094-35.055452 136.565866-49.697223 213.290667-50.491211H735.9885c66.352963 0.64599 135.243887 11.259824 199.804878 27.665568v29.587538c-155.603569-39.03739-319.891002-37.605412-390.279902 8.729863-12.405806 14.409775-29.273543 13.41179-35.665442 11.333823-5.255918 2.069968-18.963704 3.075952-31.36951-11.333823-70.3889-46.335276-234.676333-47.767254-390.279902-8.729863v-29.587538c64.558991-16.405744 133.451915-27.009578 199.802878-27.665568z" fill="#C8CACC" p-id="5576"></path><path d="M88.206622 298.051343c147.261699-44.939298 336.306745-44.645302 423.793378 25.227606 87.496633-69.870908 276.539679-70.166904 423.793378-25.227606v553.837346c-145.479727-36.959423-312.97311-44.551304-423.793378 25.107608-110.812269-69.658912-278.303652-62.06703-423.793378-25.107608V298.051343z" fill="#FFFFFF" p-id="5577"></path><path d="M483.280449 304.60924c9.163857 4.683927 21.033671 12.387806 28.709551 18.669709 8.285871-6.613897 17.477727-12.599803 27.453571-17.993719v556.543304a283.447571 283.447571 0 0 0-27.453571 15.157763l-26.22559-14.575772-2.483961-557.809284v0.007999z" fill="#ECF0F1" p-id="5578"></path><path d="M512 379.912064c-94.572522-93.324542-305.877221-64.346995-423.793378-34.427462v-6.483899c118.524148-29.809534 325.682911-57.429103 423.793378 33.115483 98.110467-90.544585 305.26923-62.935017 423.793378-33.115483v6.483899c-117.916158-29.919533-329.212856-58.89708-423.793378 34.427462z m0 41.393353c94.582522-93.316542 305.877221-64.346995 423.793378-34.427462V380.394056c-118.524148-29.809534-325.682911-57.429103-423.793378 33.125483-98.110467-90.554585-305.25923-62.935017-423.793378-33.125483v6.483899c117.914158-29.919533 329.220856-58.89708 423.793378 34.427462z m0 41.393353c94.582522-93.316542 305.877221-64.346995 423.793378-34.427462v-6.483898c-118.524148-29.809534-325.682911-57.429103-423.793378 33.115482-98.110467-90.554585-305.25923-62.935017-423.793378-33.115482v6.483898c117.914158-29.921532 329.220856-58.89908 423.793378 34.427462z m0 41.391354c-94.572522-93.324542-305.877221-64.346995-423.793378-34.427462v-6.483899c118.524148-29.809534 325.682911-57.429103 423.793378 33.115482 98.110467-90.544585 305.26923-62.935017 423.793378-33.115482v6.483899c-117.916158-29.919533-329.212856-58.89708-423.793378 34.427462z m0 41.393353c-94.572522-93.324542-305.877221-64.346995-423.793378-34.427462v-6.483899c118.524148-29.809534 325.682911-57.429103 423.793378 33.115483 98.110467-90.554585 305.26923-62.935017 423.793378-33.115483v6.483899c-117.916158-29.919533-329.212856-58.89708-423.793378 34.427462z m0 41.393353c94.582522-93.316542 305.877221-64.346995 423.793378-34.427462v-6.483899c-118.524148-29.809534-325.682911-57.429103-423.793378 33.115483-98.110467-90.554585-305.25923-62.935017-423.793378-33.115483v6.483899c117.914158-29.921532 329.220856-58.89908 423.793378 34.427462z m0 41.393353c94.582522-93.316542 305.877221-64.346995 423.793378-34.427462v-6.483898c-118.524148-29.809534-325.682911-57.429103-423.793378 33.115482-98.110467-90.554585-305.25923-62.935017-423.793378-33.115482v6.483898c117.914158-29.921532 329.220856-58.89908 423.793378 34.427462z m0 41.391354c-94.572522-93.324542-305.877221-64.346995-423.793378-34.427463v-6.483898c118.524148-29.809534 325.682911-57.429103 423.793378 33.115482 98.110467-90.554585 305.26923-62.935017 423.793378-33.115482v6.483898c-117.916158-29.919533-329.212856-58.89708-423.793378 34.427463z m0 41.393353c-94.572522-93.316542-305.877221-64.346995-423.793378-34.427462v-6.483899c118.524148-29.817534 325.682911-57.429103 423.793378 33.115483 98.110467-90.554585 305.26923-62.935017 423.793378-33.115483v6.483899c-117.916158-29.919533-329.212856-58.88908-423.793378 34.427462z m0 41.393353c94.582522-93.316542 305.877221-64.346995 423.793378-34.427462v-6.483899c-118.524148-29.809534-325.682911-57.429103-423.793378 33.115483-98.110467-90.554585-305.25923-62.935017-423.793378-33.115483v6.483899c117.914158-29.921532 329.220856-58.89908 423.793378 34.427462z m0 41.391353c94.582522-93.324542 305.877221-64.346995 423.793378-34.427462v-6.483899c-118.524148-29.809534-325.682911-57.429103-423.793378 33.115483-98.110467-90.544585-305.25923-62.935017-423.793378-33.115483v6.483899c117.914158-29.919533 329.220856-58.89708 423.793378 34.427462z m0 41.393353c-94.572522-93.324542-305.877221-64.346995-423.793378-34.427462v-6.483898c118.524148-29.809534 325.682911-57.429103 423.793378 33.115482 98.110467-90.554585 305.26923-62.935017 423.793378-33.115482v6.483898c-117.916158-29.919533-329.212856-58.89708-423.793378 34.427462z" fill="#20D0C2" p-id="5579"></path><path d="M182.649146 276.351682l6.761894-1.061983v556.581303l-6.761894 0.979985V276.351682zM841.348854 276.351682l-6.761894-1.061983v556.581303l6.761894 0.979985V276.351682z" fill="#FF5B61" p-id="5580"></path><path d="M592.864736 29.001547l231.73838 111.772253c12.257808 9.339854 8.701864 67.054952 7.213887 77.796785-1.495977 10.743832-8.803862 6.983891-16.857737-1.393978-8.055874-8.377869 17.135732-57.151107-3.417946-66.064968L555.48932 40.041374c2.503961-4.571929 6.345901-9.265855 10.817831-10.723832 6.4299-2.095967 13.699786-2.631959 26.547586-0.313995h0.009999z" fill="#C8CACC" p-id="5581"></path><path d="M900.155935 134.003906L648.473868 80.592741c-15.407759-0.109998-47.915251 47.701255-53.319167 57.115107-5.393916 9.413853 2.687958 10.90983 14.187778 9.209856 11.49182-1.689974 21.421665-55.68313 43.129326-50.159216l270.479774 68.836925c0.811987-5.14592 0.64599-11.205825-1.995969-15.103764-3.803941-5.587913-9.215856-10.465836-20.799675-16.487743z" fill="#C8CACC" p-id="5582"></path><path d="M918.621647 178.269215c-2.54996 4.571929-5.061921 9.171857-7.573882 13.679786a6643.762191 6643.762191 0 0 0-13.993781 25.309604c-19.305698 35.121451-87.894627 20.607678-113.066234-0.211996a30.989516 30.989516 0 0 1-3.075952-2.945954c-6.225903-6.817893-9.791847-16.451743-11.915814-25.291605-2.57796-10.705833-3.509945-21.993656-3.79594-32.995485-0.175997-6.845893 0.285996-14.493774-0.083999-21.357666 0.239996-1.079983 0.507992-2.133967 0.785988-3.149951l45.661286 19.805691c20.543679 8.913861-4.637928 57.687099 3.417947 66.064968 8.055874 8.377869 15.36176 12.13781 16.849737 1.393978 1.495977-10.743832 5.043921-68.44893-7.213888-77.796785l-0.905985-0.433993 99.256449 25.263605a38.359401 38.359401 0 0 1-4.323933 12.673802l-0.021999-0.007999z m-139.835816-70.028906l121.360104 25.753597c-32.377494-16.849737-90.508586-29.597538-114.202215-31.213512a38.193403 38.193403 0 0 0-7.159888 5.449915v0.01zM551.165388 52.705176c-0.775988 5.173919-1.607975 10.355838-2.383963 15.463759-1.449977 9.523851-2.919954 19.057702-4.423931 28.579553-6.215903 39.581382 56.911111 70.084905 89.556601 69.012922a31.133514 31.133514 0 0 0 4.239934-0.443993c9.089858-1.579975 17.819722-7.01989 24.913611-12.719801 8.589866-6.891892 16.239746-15.241762 23.195637-23.767629 4.323932-5.311917 8.645865-11.629818 13.125795-16.839737 0.471993-1.005984 0.905986-1.995969 1.30198-2.965954l-48.229247-12.275808c-21.707661-5.523914-31.629506 48.469243-43.129326 50.159217-11.49182 1.689974-19.583694 0.193997-14.179778-9.209857 5.393916-9.403853 37.901408-57.225106 53.319167-57.115107l0.987984 0.211997-93.962532-40.755364a38.483399 38.483399 0 0 0-4.331932 12.665802z m153.451602 30.187529l-111.754253-53.901158c35.923439 6.483899 89.694599 31.9895 109.42629 45.199294a38.267402 38.267402 0 0 1 2.327963 8.701864z" fill="#FFFFFF" p-id="5583"></path><path d="M551.69338 2.481961c28.119561 0.599991 145.24973 38.067405 157.211543 51.453196 1.329979 1.487977 27.767566 18.991703 27.739567 19.047703l11.157826 4.729926 11.721816 3.093951c0.018-0.055999 31.637506 2.271965 33.605475 1.901971 17.597725-3.259949 132.50193 38.511398 155.613569 55.351135 6.465899 2.56796 13.061796 5.495914 12.895798 6.751894 0.775988 3.20595-8.073874 22.861643-8.969859 23.509633-0.701989 0.249996-3.897939 0.221997-8.839862-0.01-1.079983 0.959985-2.217965 2.309964-3.333948 4.137935-4.645927 7.619881-23.121639 41.079358-29.411541 52.52318-24.783613 45.079296-104.234371 31.767504-137.295854 4.397931-29.845534-24.701614-23.777628-84.724676-24.801613-96.188497-0.203997-2.253965 0.091999-5.661912 0.683989-9.679849-4.405931-5.09992-10.049843-10.585835-13.911782-10.539835-3.019953-2.401962-10.843831-1.513976-17.449728-0.175997-1.985969 3.537945-3.84194 6.4099-5.385915 8.073874-7.813878 8.443868-39.749379 59.627068-78.470774 60.893048-42.89933 1.413978-113.88822-36.673427-105.898346-87.496633 2.023968-12.903798 7.887877-50.667208 8.867862-59.53507 0.249996-2.235965 0.257996-4.101936 0.109998-5.625912-3.435946-2.437962-5.579913-4.091936-5.947907-4.663927-0.303995-1.061983 4.719926-22.021656 7.287886-24.091623 0.591991-1.005984 6.623897 0.387994 12.8118 2.123967l0.01 0.017999z m-0.527992 50.233215c-0.775988 5.181919-1.597975 10.355838-2.383963 15.463759-1.449977 9.523851-2.919954 19.057702-4.415931 28.579553-6.225903 39.591381 56.911111 70.092905 89.556601 69.020922a29.623537 29.623537 0 0 0 4.239934-0.443993c9.089858-1.579975 17.819722-7.01989 24.91361-12.709802 8.581866-6.891892 16.239746-15.251762 23.185638-23.777628 4.331932-5.311917 8.645865-11.629818 13.135795-16.839737 7.805878-16.701739 6.253902-29.393541 2.891955-37.78941-26.437587-17.717723-114.016218-57.485102-137.831847-43.997312-6.049905 3.427946-11.749816 12.423806-13.291792 22.501648v-0.008z m367.464258 125.564038c4.941923-8.913861 5.947907-19.517695 3.259949-25.929594-10.585835-25.235606-104.188372-47.37926-135.937875-49.549226-7.795878 4.591928-16.793738 13.671786-20.839675 31.657505 0.359994 6.871893-0.091999 14.511773 0.083999 21.357666 0.285996 11.001828 1.219981 22.289652 3.795941 32.995485 2.123967 8.839862 5.699911 18.483711 11.925813 25.301604 0.959985 1.053984 1.985969 2.041968 3.085952 2.945954 25.171607 20.829675 93.760535 35.333448 113.066233 0.211997 4.645927-8.443868 9.311855-16.885736 13.993782-25.309604 2.511961-4.517929 5.025921-9.117858 7.573881-13.679787h-0.008z" fill="#0E7886" p-id="5584"></path><path d="M434.627209 504.812112l-80.504742-43.361322 37.171419-37.181419 43.323323 80.540741h0.01z" fill="#FED198" p-id="5585"></path><path d="M365.004297 450.56896c9.283855-0.849987 14.797769-5.607912 15.425759-15.425759L89.702598 144.405744l-15.425759 15.435758 290.727458 290.727458z" fill="#FF5B61" p-id="5586"></path><path d="M365.004297 450.56896c0.785988 7.425884-2.401962 11.435821-10.87183 10.87183L63.395009 170.703333l10.871831-10.87183 290.729457 290.729457 0.008 0.008z" fill="#EC4B53" p-id="5587"></path><path d="M100.566429 133.531914L63.395009 170.703333l-9.181856-9.181857 37.171419-37.171419 9.181857 9.181857z" fill="#ECF0F1" p-id="5588"></path><path d="M63.839003 115.1682l-18.807707 18.807707c-5.051921 5.051921-5.051921 13.311792 0 18.363713l9.181857 9.181856 37.171419-37.171419-9.181856-9.181857c-5.053921-5.043921-13.311792-5.051921-18.363713 0z" fill="#20D0C2" p-id="5589"></path><path d="M439.865127 508.516054l-1.551976 1.541976-33.87347-21.513664 13.865783-13.865783 21.559663 33.827472v0.009999z" fill="#666666" p-id="5590"></path><path d="M380.432056 435.143201c7.427884 0.785988 11.435821-2.391963 10.87183-10.87183L100.566429 133.541913l-10.87183 10.871831L380.422056 435.153201l0.01-0.01z" fill="#EC4B53" p-id="5591"></path></svg>